<?xml version="1.0" standalone="no"?>
<!DOCTYPE svg PUBLIC "-//W3C//DTD SVG 20010904//EN"
 "http://www.w3.org/TR/2001/REC-SVG-20010904/DTD/svg10.dtd">
<svg version="1.0" xmlns="http://www.w3.org/2000/svg"
 width="700.000000pt" height="700.000000pt" viewBox="0 0 700.000000 700.000000"
 preserveAspectRatio="xMidYMid meet">
<metadata>
Created by potrace 1.11, written by Peter Selinger 2001-2013
</metadata>
<g transform="translate(0.000000,700.000000) scale(0.100000,-0.100000)"
fill="#000000" stroke="none">
<path d="M1063 5814 c-59 -21 -127 -85 -159 -149 -23 -48 -26 -64 -22 -132 2
-48 11 -94 22 -118 13 -27 269 -290 810 -832 l791 -793 -796 -797 c-888 -890
-835 -827 -827 -965 10 -197 182 -318 374 -263 l59 16 922 922 c773 772 926
929 945 972 31 70 31 171 -1 240 -19 40 -197 223 -930 957 -1005 1006 -951
958 -1081 957 -36 0 -84 -7 -107 -15z"/>
<path d="M3412 1735 c-91 -28 -169 -108 -193 -199 -18 -66 -6 -157 28 -218 33
-59 105 -119 163 -137 27 -8 379 -11 1257 -11 1361 0 1271 -5 1357 71 64 56
96 126 96 209 0 123 -49 208 -151 265 l-54 30 -1230 2 c-1012 1 -1238 -1
-1273 -12z"/>
</g>
</svg>
